<svg width="560" height="152" viewBox="0 0 560 152" fill="none" xmlns="http://www.w3.org/2000/svg">
<path d="M468.764 151.537C417.103 151.537 365.592 151.537 313.962 151.537C313.962 137.388 313.962 123.288 313.962 109.093C310.528 109.093 307.21 109.093 303.773 109.093C303.773 123.152 303.773 137.252 303.773 151.445C282.364 151.445 261.075 151.445 239.667 151.445C239.667 118.511 239.667 85.5393 239.667 52.4751C228.744 52.4751 217.938 52.4751 207.014 52.4751C207.014 85.3092 207.014 118.181 207.014 151.145C190.4 151.145 173.903 151.145 157.287 151.145C157.287 118.311 157.287 85.4387 157.287 52.4599C156.748 52.4302 156.319 52.386 155.89 52.3859C146.005 52.382 136.12 52.3956 126.235 52.3635C125.232 52.3602 124.723 52.6128 124.235 53.593C108.194 85.7978 92.1056 117.978 76.0152 150.158C75.8102 150.568 75.4935 150.922 75.1112 151.472C50.2837 101.817 25.5563 52.3619 0.744873 2.73904C1.24275 2.7054 1.60794 2.65923 1.97315 2.65914C17.7491 2.65556 33.5252 2.66688 49.3011 2.63025C50.2919 2.62795 50.7654 2.95197 51.193 3.81118C59.0591 19.6145 66.956 35.4025 74.8495 51.1922C74.9062 51.3057 75.0065 51.3973 75.2119 51.6591C77.1279 47.8063 78.9801 44.0708 80.8416 40.34C86.9353 28.127 93.0402 15.9196 99.1108 3.69524C99.5302 2.85066 100.067 2.63859 100.955 2.63885C168.153 2.65764 235.351 2.65605 302.549 2.65605C302.888 2.65605 303.227 2.65605 303.684 2.65605C303.684 16.7514 303.684 30.7522 303.684 44.8232C307.12 44.8232 310.436 44.8232 313.873 44.8232C313.873 30.7951 313.873 16.7942 313.873 2.72498C335.281 2.72498 356.571 2.72498 378.024 2.72498C378.024 18.2831 378.024 33.8109 378.024 49.3387C378.134 49.3652 378.244 49.3917 378.354 49.4183C386.137 33.1482 393.92 16.8782 401.785 0.434738C402.993 2.88401 404.145 5.17537 405.257 7.4865C407.468 12.0838 409.652 16.6942 411.855 21.295C415.245 28.3715 418.639 35.4457 422.036 42.5186C424.307 47.2484 426.595 51.97 428.86 56.703C432.184 63.6495 435.488 70.6055 438.811 77.5525C441.074 82.2856 443.366 87.0055 445.625 91.7407C446.801 94.2039 447.934 96.6873 449.253 99.5204C450.373 97.8715 451.324 96.5022 452.243 95.1111C456.071 89.3122 459.872 83.495 463.739 77.7223C464.111 77.1669 464.073 76.9805 463.724 76.4563C459.315 69.8273 454.968 63.1563 450.575 56.5162C443.303 45.5238 436 34.5518 428.728 23.5597C425.293 18.368 421.892 13.1532 418.488 7.94138C417.367 6.22502 416.282 4.48513 415.132 2.68021C463.243 2.68021 511.168 2.68021 559.448 2.68021C558.308 4.42925 557.291 6.01512 556.249 7.58431C551.494 14.7437 546.718 21.8883 541.979 29.0577C537.375 36.0231 532.812 43.0157 528.221 49.9899C522.436 58.7786 516.633 67.5559 510.877 76.3642C510.65 76.7125 510.633 77.4618 510.856 77.8028C516.461 86.365 522.102 94.9036 527.755 103.434C537.197 117.679 546.657 131.912 556.093 146.162C557.203 147.838 558.211 149.582 559.415 151.537C529.092 151.537 499.003 151.537 468.764 151.537ZM327.073 106.154C327.073 116.865 327.073 127.576 327.073 138.274C339.642 138.274 352.044 138.274 364.526 138.274C364.526 97.4132 364.526 56.6349 364.526 15.9437C351.899 15.9437 339.497 15.9437 326.98 15.9437C326.98 30.0498 326.98 44.0489 326.98 57.971C314.761 57.971 302.658 57.971 290.441 57.971C290.441 43.8686 290.441 29.8695 290.441 15.9364C277.822 15.9364 265.321 15.9364 252.874 15.9364C252.874 56.7913 252.874 97.5463 252.874 138.267C265.466 138.267 277.968 138.267 290.585 138.267C290.585 124.078 290.585 109.979 290.585 95.9049C302.804 95.9049 314.906 95.9049 327.073 95.9049C327.073 99.2784 327.073 102.566 327.073 106.154ZM472.069 89.118C469.822 92.547 467.586 95.9831 465.325 99.4032C462.37 103.874 459.382 108.323 456.456 112.811C456.208 113.191 456.104 113.904 456.289 114.292C459.914 121.898 463.623 129.464 467.221 137.081C467.712 138.12 468.268 138.376 469.315 138.375C490.631 138.35 511.947 138.356 533.264 138.356C533.787 138.356 534.31 138.356 534.936 138.356C528.395 128.428 521.958 118.637 515.5 108.861C508.663 98.5097 501.798 88.1761 494.984 77.8088C494.759 77.4672 494.773 76.7229 494.996 76.3704C497.556 72.3384 500.151 68.3277 502.789 64.3466C511.671 50.946 520.577 37.5615 529.467 24.1663C531.282 21.4303 533.068 18.6744 534.86 15.9384C503.08 15.9384 471.416 15.9384 439.645 15.9384C442.48 20.2948 445.204 24.5509 447.998 28.7613C454.565 38.6588 461.166 48.5332 467.75 58.4196C471.71 64.3666 475.674 70.3115 479.594 76.2851C479.837 76.6564 479.937 77.4199 479.72 77.7499C477.257 81.5071 474.719 85.2154 472.069 89.118ZM377.998 120.233C377.998 126.252 377.998 132.271 377.998 138.207C403.117 138.207 428.068 138.207 453.027 138.207C453.008 138.15 452.966 137.973 452.891 137.811C450.685 133.059 448.504 128.296 446.259 123.563C443.684 118.135 441.052 112.734 438.444 107.322C436.271 102.813 434.089 98.3085 431.927 93.7944C428.623 86.8941 425.333 79.9866 422.036 73.083C419.941 68.6978 417.845 64.3136 415.747 59.93C411.364 50.7702 406.982 41.6095 402.584 32.4568C402.399 32.0708 402.053 31.7616 401.783 31.4166C401.52 31.7779 401.194 32.1088 401.005 32.5053C399.582 35.5021 398.205 38.5213 396.776 41.5156C393.626 48.1162 390.459 54.709 387.289 61.3C384.43 67.2433 381.534 73.1686 378.717 79.132C378.298 80.02 378.031 81.0726 378.028 82.0503C377.983 94.6779 377.998 107.306 377.998 120.233Z" fill="#FFEBCC"/>
</svg>
